HIERARCHY
ROOT Hips
{
  OFFSET 0 0.240689 0
  CHANNELS 6 Xposition Yposition Zposition Zrotation Xrotation Yrotation
  JOINT Bip01_Spine0
  {
    OFFSET 0 -24.7459 49.7988
    CHANNELS 6 Xposition Yposition Zposition Zrotation Xrotation Yrotation
    JOINT Bip01_Pelvis
    {
      OFFSET 0 0 0
      CHANNELS 6 Xposition Yposition Zposition Zrotation Xrotation Yrotation
      JOINT Bip01_Spine0_Tail
      {
        OFFSET -6.47486 -3.86022 0
        CHANNELS 6 Xposition Yposition Zposition Zrotation Xrotation Yrotation
        JOINT Bip01_Spine0_Tail1
        {
          OFFSET 10.3837 -0.00825882 0
          CHANNELS 6 Xposition Yposition Zposition Zrotation Xrotation Yrotation
          JOINT Bip01_Spine0_Tail2
          {
            OFFSET 10.3837 -0.00826263 0
            CHANNELS 6 Xposition Yposition Zposition Zrotation Xrotation Yrotation
            JOINT Bip01_Spine0_Tail3
            {
              OFFSET 10.3837 -0.00825882 0
              CHANNELS 6 Xposition Yposition Zposition Zrotation Xrotation Yrotation
              JOINT Bip01_Spine0_Tail4
              {
                OFFSET 10.3837 -0.00826263 0
                CHANNELS 6 Xposition Yposition Zposition Zrotation Xrotation Yrotation
                End Site
                {
                  OFFSET 0 0 0
                }
              }
            }
          }
        }
      }
      JOINT Bip01_R_Thigh
      {
        OFFSET 0 -1.52588e-005 -8.75617
        CHANNELS 6 Xposition Yposition Zposition Zrotation Xrotation Yrotation
        JOINT Bip01_R_Calf
        {
          OFFSET 19.7638 0 0
          CHANNELS 6 Xposition Yposition Zposition Zrotation Xrotation Yrotation
          JOINT Bip01_R_Foot
          {
            OFFSET 18.6534 0 0
            CHANNELS 6 Xposition Yposition Zposition Zrotation Xrotation Yrotation
            JOINT Bip01_R_Toe0
            {
              OFFSET 5.09145 13.9567 0
              CHANNELS 6 Xposition Yposition Zposition Zrotation Xrotation Yrotation
              JOINT Bip01_R_Toe01
              {
                OFFSET 4.28803 0 0
                CHANNELS 6 Xposition Yposition Zposition Zrotation Xrotation Yrotation
                JOINT Bip01_R_Toe02
                {
                  OFFSET 3.85801 0 0
                  CHANNELS 6 Xposition Yposition Zposition Zrotation Xrotation Yrotation
                  End Site
                  {
                    OFFSET 0 0 0
                  }
                }
              }
            }
          }
        }
      }
      JOINT Bip01_L_Thigh
      {
        OFFSET 0 1.52588e-005 8.75617
        CHANNELS 6 Xposition Yposition Zposition Zrotation Xrotation Yrotation
        JOINT Bip01_L_Calf
        {
          OFFSET 19.7638 0 0
          CHANNELS 6 Xposition Yposition Zposition Zrotation Xrotation Yrotation
          JOINT Bip01_L_Foot
          {
            OFFSET 18.6534 0 0
            CHANNELS 6 Xposition Yposition Zposition Zrotation Xrotation Yrotation
            JOINT Bip01_L_Toe0
            {
              OFFSET 5.09144 13.9567 0
              CHANNELS 6 Xposition Yposition Zposition Zrotation Xrotation Yrotation
              JOINT Bip01_L_Toe01
              {
                OFFSET 4.28802 0 0
                CHANNELS 6 Xposition Yposition Zposition Zrotation Xrotation Yrotation
                JOINT Bip01_L_Toe02
                {
                  OFFSET 3.85801 0 0
                  CHANNELS 6 Xposition Yposition Zposition Zrotation Xrotation Yrotation
                  End Site
                  {
                    OFFSET 0 0 0
                  }
                }
              }
            }
          }
        }
      }
      JOINT Bip01_Spine
      {
        OFFSET 9.14835 -0.00640869 -1.1e-005
        CHANNELS 6 Xposition Yposition Zposition Zrotation Xrotation Yrotation
        JOINT Bip01_Spine1
        {
          OFFSET 8.04366 -0.00638199 0
          CHANNELS 6 Xposition Yposition Zposition Zrotation Xrotation Yrotation
          JOINT Bip01_Spine2
          {
            OFFSET 8.04367 -0.00639343 0
            CHANNELS 6 Xposition Yposition Zposition Zrotation Xrotation Yrotation
            JOINT Bip01_Spine3
            {
              OFFSET 8.04304 -0.00831222 0
              CHANNELS 6 Xposition Yposition Zposition Zrotation Xrotation Yrotation
              JOINT Bip01_Neck
              {
                OFFSET 10.6685 1.06813 0
                CHANNELS 6 Xposition Yposition Zposition Zrotation Xrotation Yrotation
                JOINT Bip01_R_Clavicle
                {
                  OFFSET -3.21661 -4.89635 -9.04802
                  CHANNELS 6 Xposition Yposition Zposition Zrotation Xrotation Yrotation
                  JOINT Bip01_R_UpperArm
                  {
                    OFFSET 19.0492 0 0
                    CHANNELS 6 Xposition Yposition Zposition Zrotation Xrotation Yrotation
                    JOINT Bip01_R_Forearm
                    {
                      OFFSET 10.3706 0 0
                      CHANNELS 6 Xposition Yposition Zposition Zrotation Xrotation Yrotation
                      JOINT Bip01_R_Hand
                      {
                        OFFSET 22.8632 0 0
                        CHANNELS 6 Xposition Yposition Zposition Zrotation Xrotation Yrotation
                        JOINT Bip01_R_Finger0
                        {
                          OFFSET 6.48259 0.103651 0.504496
                          CHANNELS 6 Xposition Yposition Zposition Zrotation Xrotation Yrotation
                          JOINT Bip01_R_Finger01
                          {
                            OFFSET 3.66847 0 0
                            CHANNELS 6 Xposition Yposition Zposition Zrotation Xrotation Yrotation
                            End Site
                            {
                              OFFSET 0 0 0
                            }
                          }
                        }
                      }
                    }
                  }
                }
                JOINT Bip01_L_Clavicle
                {
                  OFFSET -3.21661 -4.89641 9.04797
                  CHANNELS 6 Xposition Yposition Zposition Zrotation Xrotation Yrotation
                  JOINT Bip01_L_UpperArm
                  {
                    OFFSET 19.0492 0 0
                    CHANNELS 6 Xposition Yposition Zposition Zrotation Xrotation Yrotation
                    JOINT Bip01_L_Forearm
                    {
                      OFFSET 10.3706 0 0
                      CHANNELS 6 Xposition Yposition Zposition Zrotation Xrotation Yrotation
                      JOINT Bip01_L_Hand
                      {
                        OFFSET 22.8631 0 0
                        CHANNELS 6 Xposition Yposition Zposition Zrotation Xrotation Yrotation
                        JOINT Bip01_L_Finger0
                        {
                          OFFSET 6.48257 0.103655 -0.504492
                          CHANNELS 6 Xposition Yposition Zposition Zrotation Xrotation Yrotation
                          JOINT Bip01_L_Finger01
                          {
                            OFFSET 3.66844 0 0
                            CHANNELS 6 Xposition Yposition Zposition Zrotation Xrotation Yrotation
                            End Site
                            {
                              OFFSET 0 0 0
                            }
                          }
                        }
                      }
                    }
                  }
                }
                JOINT Bip01_Neck1
                {
                  OFFSET 7.52459 -0.00656509 0
                  CHANNELS 6 Xposition Yposition Zposition Zrotation Xrotation Yrotation
                  JOINT Bip01_Neck2
                  {
                    OFFSET 8.4783 -0.00588226 0
                    CHANNELS 6 Xposition Yposition Zposition Zrotation Xrotation Yrotation
                    JOINT Bip01_Head
                    {
                      OFFSET 8.41606 0 0
                      CHANNELS 6 Xposition Yposition Zposition Zrotation Xrotation Yrotation
                      JOINT EyesBlue
                      {
                        OFFSET 0 0 0
                        CHANNELS 6 Xposition Yposition Zposition Zrotation Xrotation Yrotation
                        JOINT EyesBlue_2
                        {
                          OFFSET 0 -0.500007 0
                          CHANNELS 6 Xposition Yposition Zposition Zrotation Xrotation Yrotation
                          End Site
                          {
                            OFFSET 0 0 0
                          }
                        }
                      }
                      JOINT Bip01_Head2_Eyeleds
                      {
                        OFFSET 6.52751 7.61746 2.2e-005
                        CHANNELS 6 Xposition Yposition Zposition Zrotation Xrotation Yrotation
                        End Site
                        {
                          OFFSET 0 0 0
                        }
                      }
                      JOINT Bip01_Head_Muzzle
                      {
                        OFFSET 2.88628 13.9448 3.88994
                        CHANNELS 6 Xposition Yposition Zposition Zrotation Xrotation Yrotation
                        End Site
                        {
                          OFFSET 0 0 0
                        }
                      }
                      JOINT Bip01_Head1_Jaw
                      {
                        OFFSET 0.271065 1.32405 0
                        CHANNELS 6 Xposition Yposition Zposition Zrotation Xrotation Yrotation
                        JOINT _Bip01_Head11_TungeControler
                        {
                          OFFSET 4.61616 5.82872 0
                          CHANNELS 6 Xposition Yposition Zposition Zrotation Xrotation Yrotation
                          JOINT _Bip01_Ponytail3_tunge
                          {
                            OFFSET 5.17785 2.98805 0
                            CHANNELS 6 Xposition Yposition Zposition Zrotation Xrotation Yrotation
                            JOINT Bip01_Ponytail31
                            {
                              OFFSET 5.57569 0 0
                              CHANNELS 6 Xposition Yposition Zposition Zrotation Xrotation Yrotation
                              JOINT Bip01_Ponytail32
                              {
                                OFFSET 2.93165 0 0
                                CHANNELS 6 Xposition Yposition Zposition Zrotation Xrotation Yrotation
                                JOINT Bip01_Ponytail3Nub
                                {
                                  OFFSET 3.30155 0 0
                                  CHANNELS 6 Xposition Yposition Zposition Zrotation Xrotation Yrotation
                                  End Site
                                  {
                                    OFFSET 0 0 0
                                  }
                                }
                              }
                            }
                          }
                        }
                        JOINT Bip01_Head_JawNub
                        {
                          OFFSET 15.5776 -0.000389099 0
                          CHANNELS 6 Xposition Yposition Zposition Zrotation Xrotation Yrotation
                          End Site
                          {
                            OFFSET 0 0 0
                          }
                        }
                      }
                      JOINT Bip01_Ponytail2
                      {
                        OFFSET 9.40334 1.03973 -6.51764
                        CHANNELS 6 Xposition Yposition Zposition Zrotation Xrotation Yrotation
                        JOINT Bip01_Ponytail21
                        {
                          OFFSET 2.77018 -0.00640106 1.33514e-005
                          CHANNELS 6 Xposition Yposition Zposition Zrotation Xrotation Yrotation
                          End Site
                          {
                            OFFSET 0 0 0
                          }
                        }
                      }
                      JOINT Bip01_Ponytail1
                      {
                        OFFSET 9.40368 1.03969 6.51768
                        CHANNELS 6 Xposition Yposition Zposition Zrotation Xrotation Yrotation
                        JOINT Bip01_Ponytail11
                        {
                          OFFSET 2.77018 -0.00640487 0
                          CHANNELS 6 Xposition Yposition Zposition Zrotation Xrotation Yrotation
                          End Site
                          {
                            OFFSET 0 0 0
                          }
                        }
                      }
                    }
                  }
                }
              }
            }
          }
        }
      }
    }
  }
}
MOTION
Frames:	4
Frame Time:	0.0333333
-2e-006 0.240689 -4e-006 -90 -42.501 -90 4.21322 -28.7019 47.2282 90.193 1.99028 84.4583 0 0 0 -97.6904 0.618224 -94.6216 -6.45233 -3.89674 0.00257503 123.246 2.97601 -10.1708 10.3787 -0.006763 5.1e-005 -26.5378 -0.734473 -0.169376 10.3832 -0.008106 0.000459 4.19716 -2.76722 3.02099 10.3907 -0.003799 0.000488 32.4714 -3.66561 10.8788 10.3905 -0.004009 0.000433 47.3946 -1.24831 9.09347 7.16763e-006 -1.11609e-005 -8.75617 -118.557 -23.4518 -167.327 19.7638 -8.88178e-015 7.10543e-015 -63.0893 0.00116848 0.0033477 18.6534 7.10543e-015 -3.55271e-015 -21.4903 4.21451 -5.88422 5.09143 13.9567 9.72219e-009 98.5679 2.19296 -9.31055 4.288 -1.77636e-015 -1.77636e-015 51.5 -1.95811e-006 2.1362e-005 3.85799 7.99361e-015 6.21725e-015 -45 -6.44173e-006 5.00454e-006 -1.71676e-005 1.11609e-005 8.75617 -123.849 -5.98489 171.369 19.7638 -6e-006 -4.44089e-015 -81.0726 0.000274846 0.00352605 18.6534 0 -3.55271e-015 -23.6474 -4.4564 7.39775 5.09143 13.9567 -3.00114e-008 100.75 2.45247 3.73202 4.288 -3e-006 5.68434e-014 68.7868 4.83799e-006 8.8526e-007 3.85799 9.85878e-014 1e-006 -44.6162 -8.46545e-006 -1.5792e-005 9.1179 0.0932574 -0.737543 1.22229 6.40235 -1.86774 8.04389 -0.006278 0.000108 3.06799 -0.678264 10.1548 8.04371 -0.006282 0.000226 1.50878 -1.25929 6.66384 8.04401 -0.008216 0.00014 3.19965 -0.336579 7.61127 10.669 1.06808 6.59851e-005 -7.65314 -0.86609 -7.89566 -4.89923 -4.41988 -8.52376 139.893 -79.6406 52.4554 19.0492 -3e-006 1e-006 74.825 18.8518 -101.966 10.3706 3e-006 1e-006 -61.6354 1.73354e-005 6.74347e-005 22.8631 3e-006 1e-006 -19.5777 -16.128 8.05472 6.48256 0.103653 0.504494 -83.0204 1.00005 -15.4666 3.66843 -1e-006 3.55271e-015 40.107 4.69425e-006 8.41357e-006 -2.41326 -4.69349 9.39852 -151.659 69.0777 -137.031 19.0492 0 7.10543e-015 67.1256 38.8448 106.355 10.3706 -1.42109e-014 9.99999e-007 -112.754 -0.000766211 0.00399341 22.8631 3.55272e-015 6.21725e-015 37.3436 -10.4974 -12.8896 6.48257 0.103654 -0.504495 -49.8407 7.79053 13.4434 3.66843 -1e-006 0 40.107 1.05405e-005 -6.62761e-006 7.52763 -0.006557 -0.000234 8.1732 2.75174 2.08258 8.47716 -0.006332 0.0004 11.9622 -0.863783 -13.0434 8.41605 -2.13163e-014 7.10543e-015 -69.9842 -51.6032 28.5722 -3e-006 5e-006 -3e-006 -23.1098 1.37701e-015 90 2.28157e-007 -0.500002 -2.47232e-006 -148.812 90 -121.188 0 0 0 -113.549 7.01671e-015 -180 2.8863 13.9448 3.88993 -22.989 1.3702e-015 90 0 0 0 -85.3358 7.01671e-015 -180 0 0 0 -120.289 -1.47599e-006 -1.95909e-005 0 0 0 133.74 -2.01412e-005 3.7881e-006 0 0 0 1.83152 1.11635e-007 5.84532e-009 0 0 0 -17.65 -8.14611e-007 -8.92724e-008 0 0 0 -26.1943 3.68613e-007 2.35734e-007 15.5776 -0.0004 -9e-006 5.56597e-015 1.59028e-015 1.59028e-015 9.40381 1.03965 -6.51623 -5.86043 -19.9245 19.5978 2.77014 -0.006065 0.002027 2.27082 -18.5256 -1.10313 9.40416 1.03961 6.51625 -5.86009 19.9252 -19.5962 2.77015 -0.006076 -0.002033 2.27005 18.5274 1.10494 
-2e-006 0.240689 -4e-006 -90 -37.5308 -90 4.21322 -28.7019 47.3052 90.193 1.99028 84.4583 0 0 0 -98.9875 0.790809 -95.131 -6.44838 -3.90326 -0.0271998 124.719 2.31526 -11.4721 10.3787 -0.006763 5.1e-005 -26.9857 -0.7096 -0.822648 10.3832 -0.008106 0.000459 3.86864 -2.75705 1.96124 10.3907 -0.003799 0.000488 32.3348 -5.79552 11.9718 10.3905 -0.004009 0.000433 48.2477 -1.27183 6.90513 7.18585e-006 -1.11786e-005 -8.75617 -117.835 -25.5839 -167.465 19.7638 0 1.77636e-015 -64.1349 0.00110721 0.00336843 18.6534 1.06581e-014 0 -20.5176 3.10633 -5.8835 5.09143 13.9567 1.12793e-008 98.294 1.03861 -8.92497 4.288 7.10543e-015 0 51.5 -2.10626e-006 2.10572e-005 3.85799 1.24345e-014 -1.77636e-015 -45 -6.6795e-006 5.28074e-006 -1.71859e-005 1.11786e-005 8.75617 -123.744 -7.49144 172.642 19.7638 -6e-006 -9.76996e-015 -81.8482 0.000250738 0.00352607 18.6534 0 8.88179e-016 -22.8066 -4.44942 6.15346 5.09143 13.9567 -1.41607e-008 100.751 2.53507 3.66591 4.288 -3e-006 4.08562e-014 68.7868 4.18325e-006 7.56255e-007 3.85799 6.92779e-014 1e-006 -44.6162 -8.9262e-006 -1.5297e-005 9.11071 0.120422 -0.818692 1.61048 7.32216 -1.50368 8.04389 -0.006278 0.000108 3.07065 -1.00189 10.074 8.04371 -0.006282 0.000226 1.49168 -1.58281 6.58254 8.04401 -0.008216 0.00014 3.1883 -0.660226 7.53012 10.669 1.06808 6.59887e-005 -8.06797 -0.849347 -7.95296 -4.87491 -4.44922 -8.52245 142.438 -79.2197 54.917 19.0492 -3e-006 1e-006 71.8642 20.4663 -102.995 10.3706 3e-006 1e-006 -59.0091 1.84899e-005 6.76887e-005 22.8631 3e-006 1e-006 -19.0266 -16.4833 5.33331 6.48256 0.103653 0.504494 -77.535 -0.519691 -15.4897 3.66843 -1e-006 -2.66453e-014 40.107 5.8913e-006 7.30226e-006 -2.37086 -4.71748 9.39741 -149.964 70.1008 -141.95 19.0492 7.10543e-015 7.10543e-015 69.7296 29.4123 113.183 10.3706 -4.9738e-014 9.99999e-007 -100.589 -0.000338449 0.00398497 22.8631 5.32907e-015 -6.21725e-015 26.8284 0.219816 -13.3828 6.48257 0.103654 -0.504495 -60.8559 5.04026 14.6783 3.66843 -1e-006 2.66453e-015 40.107 9.20265e-006 -6.65603e-006 7.52763 -0.006557 -0.000234 7.87154 2.74075 2.09703 8.47716 -0.006332 0.0004 12.4406 -0.974472 -13.0353 8.41605 -2.84217e-014 1.77636e-015 -68.4227 -50.3941 30.7257 -3e-006 5e-006 -3e-006 -23.1098 1.37701e-015 90 2.28865e-007 -0.500002 -2.45122e-006 -143.165 90 -126.835 0 0 0 -113.549 -7.01671e-015 -180 2.8863 13.9448 3.88993 -22.989 1.3702e-015 90 0 0 0 -85.3358 7.01671e-015 -180 0 0 0 -120.289 -1.36496e-006 -1.97975e-005 0 0 0 133.74 -1.98804e-005 3.78113e-006 0 0 0 1.83152 1.22092e-007 1.43923e-008 0 0 0 -17.65 -8.32358e-007 -1.73485e-007 0 0 0 -26.1943 7.43756e-007 1.26737e-007 15.5776 -0.0004 -9e-006 5.56597e-015 -1.59028e-015 -0 9.40381 1.03965 -6.51623 -5.85396 -19.9432 19.6873 2.77014 -0.006065 0.002027 2.27077 -18.5212 -1.01214 9.40416 1.03961 6.51625 -5.85319 19.9437 -19.6859 2.77015 -0.006076 -0.002033 2.27026 18.5231 1.01388 
-2e-006 0.240689 -4e-006 -90 -32.6428 -90 4.21322 -28.7019 47.4352 90.193 1.99028 84.4583 0 0 0 -100.004 0.947418 -95.6381 -6.44472 -3.90925 -0.0383361 126.958 1.52963 -12.4645 10.3787 -0.006763 5.1e-005 -27.712 -0.660802 -1.86513 10.3832 -0.008106 0.000459 3.33492 -2.73068 0.269517 10.3907 -0.003799 0.000488 32.3039 -8.54135 12.9569 10.3905 -0.004009 0.000433 49.6314 -1.3585 3.4156 7.20389e-006 -1.11911e-005 -8.75617 -118.59 -25.9721 -170.7 19.7638 1.77636e-015 1.77636e-015 -69.3171 0.00079847 0.00345457 18.6534 0 1.77636e-015 -16.1606 2.98535 -7.48764 5.09143 13.9567 4.10983e-010 98.4793 0.676575 -7.78739 4.288 -1.59872e-014 3.55272e-015 51.4555 -2.09205e-006 2.07253e-005 3.85799 -1.77636e-015 0 -44.9938 -7.06001e-006 5.44533e-006 -1.72039e-005 1.11911e-005 8.75617 -123.519 -8.97416 173.829 19.7638 -6e-006 -3.55271e-015 -82.398 0.000233644 0.00352608 18.6534 7.10543e-015 -8.88179e-016 -22.0489 -4.36731 4.74995 5.09143 13.9567 -3.75507e-009 100.75 2.42192 3.75776 4.288 -3e-006 3.55271e-014 68.7868 3.61469e-006 6.52677e-007 3.85799 7.63833e-014 1e-006 -44.6162 -9.31664e-006 -1.48694e-005 9.10286 0.145083 -0.899398 2.21348 7.99111 -1.12646 8.04389 -0.006278 0.000108 3.0487 -1.37244 10.0409 8.04371 -0.006282 0.000226 1.44758 -1.95127 6.54845 8.04401 -0.008216 0.00014 3.15037 -1.02958 7.49695 10.669 1.06808 6.59924e-005 -8.29141 -0.833306 -7.86522 -4.84395 -4.46601 -8.53129 145.565 -78.7893 58.3055 19.0492 -3e-006 9.99999e-007 68.6089 22.0227 -103.851 10.3706 3e-006 1e-006 -56.4306 2.00594e-005 6.76853e-005 22.8631 3e-006 1e-006 -18.4603 -16.7233 2.415 6.48256 0.103653 0.504494 -71.6814 -2.13307 -15.3547 3.66843 -1e-006 -5.5067e-014 40.107 6.75123e-006 6.42748e-006 -2.36729 -4.72919 9.39238 -148.117 71.4737 -148.028 19.0492 -1.06581e-014 -1.42109e-014 77.906 18.8016 118.45 10.3706 -6.39489e-014 9.99999e-007 -82.9617 0.000228617 0.00398163 22.8631 1.06581e-014 -3.55271e-015 12.7259 13.162 -10.5885 6.48257 0.103654 -0.504495 -72.6194 1.87489 15.3905 3.66844 -1e-006 6.66133e-015 40.107 7.8996e-006 -6.41955e-006 7.52763 -0.006557 -0.000234 7.83489 2.73941 2.09878 8.47716 -0.006332 0.0004 12.8865 -1.0776 -13.0272 8.41605 0 1.77636e-015 -68.4641 -48.8771 31.6001 -3e-006 5e-006 -3e-006 -23.1098 1.37701e-015 90 2.29376e-007 -0.500002 -2.43555e-006 -137.72 90 -132.28 0 0 0 -113.549 -1.52588e-005 -180 2.8863 13.9448 3.88993 -22.989 1.3702e-015 90 0 0 0 -85.3358 7.01671e-015 -180 0 0 0 -120.289 -8.30528e-007 -2.01421e-005 0 0 0 133.74 -1.93168e-005 4.02184e-006 0 0 0 1.83152 1.16053e-007 2.50438e-008 0 0 0 -17.65 -7.2653e-007 -2.7265e-007 0 0 0 -26.1943 1.13736e-006 -5.75502e-008 15.5776 -0.0004 -9e-006 -3.53113e-031 3.18055e-015 6.36111e-015 9.40381 1.03965 -6.51623 -5.83713 -19.9887 19.9065 2.77014 -0.006065 0.002027 2.27125 -18.5107 -0.788508 9.40416 1.03961 6.51625 -5.83608 19.9891 -19.9052 2.77015 -0.006076 -0.002033 2.27082 18.5126 0.790529 
-2e-006 0.240689 -4e-006 -90 -27.892 -90 4.21322 -28.7019 47.6016 90.193 1.99028 84.4583 0 0 0 -100.61 1.06743 -96.1187 -6.44128 -3.9151 -0.0249495 129.587 0.766147 -13.027 10.3787 -0.006763 5.1e-005 -28.6137 -0.583528 -3.11406 10.3832 -0.008106 0.000459 2.67309 -2.67802 -1.75812 10.3907 -0.003799 0.000488 32.6009 -11.4248 13.7138 10.3905 -0.004009 0.000433 51.3399 -1.5716 -0.760562 7.2209e-006 -1.11967e-005 -8.75617 -119.679 -23.7385 -177.565 19.7638 0 3.55271e-015 -77.5548 0.000295298 0.00353323 18.6534 0 -1.77636e-015 -8.36653 3.50362 -10.8133 5.09143 13.9567 7.55611e-009 99.3284 0.510496 -4.39079 4.288 -1.95399e-014 -3.55272e-015 46.8858 -3.14561e-006 2.003e-005 3.85799 1.95399e-014 1.77636e-015 -44.3543 -9.52418e-007 -1.8115e-006 -1.72209e-005 1.11967e-005 8.75617 -123.057 -10.2055 174.72 19.7638 -6e-006 -7.10543e-015 -82.3661 0.000234493 0.00352609 18.6534 0 -5.32907e-015 -21.6256 -4.29291 3.36766 5.09143 13.9567 2.19794e-009 100.75 2.09874 4.02612 4.288 -3e-006 3.37508e-014 68.7868 3.11807e-006 5.70963e-007 3.85799 5.32907e-014 1e-006 -44.6162 -9.65033e-006 -1.44984e-005 9.0948 0.164176 -0.975689 2.91892 8.30419 -0.746969 8.04389 -0.006278 0.000108 3.0104 -1.74192 10.0551 8.04371 -0.006282 0.000226 1.38696 -2.31745 6.56118 8.04401 -0.008216 0.00014 3.09521 -1.39629 7.5112 10.669 1.06808 6.59959e-005 -8.38725 -0.817225 -7.66083 -4.80565 -4.47466 -8.54842 148.939 -78.3594 62.041 19.0492 -3e-006 9.99999e-007 65.339 24.1104 -104.606 10.3706 3e-006 1e-006 -53.2173 2.17227e-005 6.78869e-005 22.8631 3e-006 1e-006 -18.0023 -17.0773 -0.704513 6.48256 0.103653 0.504494 -65.732 -3.74843 -15.0495 3.66843 -1e-006 -7.4607e-014 40.107 7.47317e-006 5.68081e-006 -2.39298 -4.73281 9.38403 -146.372 72.9427 -154.013 19.0492 0 -1.42109e-014 89.3492 9.04271 121.505 10.3706 1.77636e-014 9.99999e-007 -62.1006 0.000961294 0.00399256 22.8631 -7.10543e-015 -1.24345e-014 -2.9785 24.3751 -3.98177 6.48257 0.103654 -0.504495 -83.9214 -1.25321 15.452 3.66844 -1e-006 1.13243e-014 40.107 8.40975e-006 -6.47744e-006 7.52763 -0.006557 -0.000234 7.99602 2.74529 2.09107 8.47716 -0.006332 0.0004 13.3426 -1.18308 -13.0182 8.41605 7.10543e-015 0 -69.8178 -47.1547 31.297 -3e-006 5e-006 -3e-006 -23.1098 1.37701e-015 90 2.29372e-007 -0.500002 -2.42478e-006 -133.166 90 -136.834 0 0 0 -113.549 -1.52588e-005 -180 2.8863 13.9448 3.88993 -22.989 1.3702e-015 90 0 0 0 -85.3358 -7.01671e-015 -180 0 0 0 -120.289 1.01781e-007 -2.0594e-005 0 0 0 133.74 -1.84814e-005 4.50472e-006 0 0 0 1.83152 9.36884e-008 3.69741e-008 0 0 0 -17.65 -5.11398e-007 -3.7899e-007 0 0 0 -26.1943 1.50053e-006 -3.00041e-007 15.5776 -0.0004 -9e-006 3.18055e-015 0 6.36111e-015 9.40381 1.03965 -6.51623 -5.82021 -20.0321 20.1163 2.77014 -0.006065 0.002027 2.27175 -18.5009 -0.574956 9.40416 1.03961 6.51625 -5.81936 20.0325 -20.1148 2.77015 -0.006076 -0.002033 2.27148 18.5028 0.5765 
